<svg width="24" height="24" viewBox="0 0 24 24" fill="none" xmlns="http://www.w3.org/2000/svg">
<circle cx="12" cy="12" r="10" fill="#E9F5FF"/>
<circle cx="12" cy="18" r="1" fill="url(#paint0_linear_10582_22909)"/>
<path fill-rule="evenodd" clip-rule="evenodd" d="M11.9995 8C11.1302 8 10.3881 8.5551 10.113 9.33325C9.92899 9.85396 9.35766 10.1269 8.83695 9.94284C8.31623 9.75879 8.04331 9.18747 8.22735 8.66675C8.77599 7.11451 10.2563 6 11.9995 6C14.2086 6 15.9995 7.79086 15.9995 10C15.9995 11.8638 14.7247 13.4299 12.9995 13.874V15C12.9995 15.5523 12.5518 16 11.9995 16C11.4472 16 10.9995 15.5523 10.9995 15V13C10.9995 12.4477 11.4472 12 11.9995 12C13.1041 12 13.9995 11.1046 13.9995 10C13.9995 8.89543 13.1041 8 11.9995 8Z" fill="url(#paint1_linear_10582_22909)"/>
<defs>
<linearGradient id="paint0_linear_10582_22909" x1="12" y1="17" x2="12" y2="19" gradientUnits="userSpaceOnUse">
<stop stop-color="#6073D8"/>
<stop offset="1" stop-color="#5C5ACA"/>
</linearGradient>
<linearGradient id="paint1_linear_10582_22909" x1="12.0847" y1="6" x2="12.0847" y2="16" gradientUnits="userSpaceOnUse">
<stop stop-color="#6073D8"/>
<stop offset="1" stop-color="#5C5ACA"/>
</linearGradient>
</defs>
</svg>
