<svg width="84" height="22" viewBox="0 0 84 22" fill="none" xmlns="http://www.w3.org/2000/svg">
<path d="M0.800049 1.2C0.800049 0.537258 1.33731 0 2.00005 0H6.80005C7.46279 0 8.00005 0.537259 8.00005 1.2V4.25469C6.18657 5.51964 5.00005 7.62126 5.00005 10C5.00005 12.3787 6.18657 14.4804 8.00005 15.7453V18.8C8.00005 19.4627 7.46279 20 6.80005 20H2.00005C1.33731 20 0.800049 19.4627 0.800049 18.8V1.2Z" fill="url(#paint0_linear_132_383)"/>
<path d="M8.00005 10C8.00005 8.01178 9.61182 6.4 11.6 6.4C13.5883 6.4 15.2 8.01178 15.2 10C15.2 11.9882 13.5883 13.6 11.6 13.6C9.61182 13.6 8.00005 11.9882 8.00005 10Z" fill="url(#paint1_linear_132_383)"/>
<path d="M28.46 17.24C27.3533 17.24 26.5133 16.9667 25.94 16.42C25.38 15.8733 25.1 15.0933 25.1 14.08V3.88H27.74V13.5C27.74 13.9267 27.8333 14.2533 28.02 14.48C28.2066 14.6933 28.48 14.8 28.84 14.8C28.9733 14.8 29.12 14.7733 29.28 14.72C29.44 14.6533 29.6066 14.56 29.78 14.44L30.7 16.42C30.38 16.66 30.02 16.8533 29.62 17C29.2333 17.16 28.8466 17.24 28.46 17.24ZM23.48 9.24V7H30.24V9.24H23.48ZM36.911 17.24C35.8977 17.24 34.991 17.02 34.191 16.58C33.4044 16.1267 32.7844 15.5067 32.331 14.72C31.891 13.9333 31.671 13.0267 31.671 12C31.671 10.9733 31.891 10.0667 32.331 9.28C32.771 8.49333 33.3844 7.88 34.171 7.44C34.9577 6.98667 35.8577 6.76 36.871 6.76C37.8977 6.76 38.8044 6.98667 39.591 7.44C40.3777 7.88 40.991 8.49333 41.431 9.28C41.871 10.0667 42.091 10.9733 42.091 12C42.091 13.0267 41.871 13.9333 41.431 14.72C40.991 15.5067 40.3777 16.1267 39.591 16.58C38.8177 17.02 37.9244 17.24 36.911 17.24ZM36.911 14.8C37.4044 14.8 37.8377 14.68 38.211 14.44C38.5844 14.2 38.871 13.8733 39.071 13.46C39.2844 13.0333 39.391 12.5467 39.391 12C39.391 11.4533 39.2844 10.9733 39.071 10.56C38.8577 10.1333 38.5577 9.8 38.171 9.56C37.7977 9.32 37.3644 9.2 36.871 9.2C36.391 9.2 35.9577 9.32 35.571 9.56C35.1977 9.8 34.9044 10.1333 34.691 10.56C34.4777 10.9733 34.371 11.4533 34.371 12C34.371 12.5467 34.4777 13.0333 34.691 13.46C34.9044 13.8733 35.2044 14.2 35.591 14.44C35.9777 14.68 36.4177 14.8 36.911 14.8ZM48.3321 21.26C47.5721 21.26 46.8988 21.2067 46.3121 21.1C45.7255 20.9933 45.2321 20.8533 44.8321 20.68C44.4321 20.5067 44.1055 20.3333 43.8521 20.16L44.8921 18.04C45.0788 18.1467 45.3255 18.2667 45.6321 18.4C45.9388 18.5467 46.3055 18.6667 46.7321 18.76C47.1588 18.8667 47.6521 18.92 48.2121 18.92C48.7455 18.92 49.2121 18.8133 49.6121 18.6C50.0255 18.4 50.3455 18.08 50.5721 17.64C50.8121 17.2133 50.9321 16.6667 50.9321 16V7H53.5721V15.92C53.5721 17.04 53.3588 18 52.9321 18.8C52.5055 19.6133 51.8988 20.2267 51.1121 20.64C50.3388 21.0533 49.4121 21.26 48.3321 21.26ZM47.8121 16.72C46.8921 16.72 46.0921 16.52 45.4121 16.12C44.7455 15.72 44.2255 15.16 43.8521 14.44C43.4788 13.72 43.2921 12.8667 43.2921 11.88C43.2921 10.84 43.4788 9.94 43.8521 9.18C44.2255 8.40667 44.7455 7.81333 45.4121 7.4C46.0921 6.97333 46.8921 6.76 47.8121 6.76C48.6121 6.76 49.3055 6.97333 49.8921 7.4C50.4788 7.81333 50.9321 8.40667 51.2521 9.18C51.5721 9.95333 51.7321 10.8733 51.7321 11.94C51.7321 12.9 51.5721 13.74 51.2521 14.46C50.9321 15.18 50.4788 15.74 49.8921 16.14C49.3055 16.5267 48.6121 16.72 47.8121 16.72ZM48.5721 14.5C49.0255 14.5 49.4188 14.3867 49.7521 14.16C50.0988 13.92 50.3655 13.6 50.5521 13.2C50.7388 12.7867 50.8321 12.32 50.8321 11.8C50.8321 11.2667 50.7321 10.8 50.5321 10.4C50.3455 10 50.0788 9.68667 49.7321 9.46C49.3988 9.23333 49.0055 9.12 48.5521 9.12C48.0855 9.12 47.6721 9.23333 47.3121 9.46C46.9521 9.68667 46.6721 10 46.4721 10.4C46.2721 10.8 46.1655 11.2667 46.1521 11.8C46.1655 12.32 46.2721 12.7867 46.4721 13.2C46.6721 13.6 46.9521 13.92 47.3121 14.16C47.6855 14.3867 48.1055 14.5 48.5721 14.5ZM60.3439 21.26C59.5839 21.26 58.9105 21.2067 58.3239 21.1C57.7372 20.9933 57.2439 20.8533 56.8439 20.68C56.4439 20.5067 56.1172 20.3333 55.8639 20.16L56.9039 18.04C57.0905 18.1467 57.3372 18.2667 57.6439 18.4C57.9505 18.5467 58.3172 18.6667 58.7439 18.76C59.1705 18.8667 59.6639 18.92 60.2239 18.92C60.7572 18.92 61.2239 18.8133 61.6239 18.6C62.0372 18.4 62.3572 18.08 62.5839 17.64C62.8239 17.2133 62.9439 16.6667 62.9439 16V7H65.5839V15.92C65.5839 17.04 65.3705 18 64.9439 18.8C64.5172 19.6133 63.9105 20.2267 63.1239 20.64C62.3505 21.0533 61.4239 21.26 60.3439 21.26ZM59.8239 16.72C58.9039 16.72 58.1039 16.52 57.4239 16.12C56.7572 15.72 56.2372 15.16 55.8639 14.44C55.4905 13.72 55.3039 12.8667 55.3039 11.88C55.3039 10.84 55.4905 9.94 55.8639 9.18C56.2372 8.40667 56.7572 7.81333 57.4239 7.4C58.1039 6.97333 58.9039 6.76 59.8239 6.76C60.6239 6.76 61.3172 6.97333 61.9039 7.4C62.4905 7.81333 62.9439 8.40667 63.2639 9.18C63.5839 9.95333 63.7439 10.8733 63.7439 11.94C63.7439 12.9 63.5839 13.74 63.2639 14.46C62.9439 15.18 62.4905 15.74 61.9039 16.14C61.3172 16.5267 60.6239 16.72 59.8239 16.72ZM60.5839 14.5C61.0372 14.5 61.4305 14.3867 61.7639 14.16C62.1105 13.92 62.3772 13.6 62.5639 13.2C62.7505 12.7867 62.8439 12.32 62.8439 11.8C62.8439 11.2667 62.7439 10.8 62.5439 10.4C62.3572 10 62.0905 9.68667 61.7439 9.46C61.4105 9.23333 61.0172 9.12 60.5639 9.12C60.0972 9.12 59.6839 9.23333 59.3239 9.46C58.9639 9.68667 58.6839 10 58.4839 10.4C58.2839 10.8 58.1772 11.2667 58.1639 11.8C58.1772 12.32 58.2839 12.7867 58.4839 13.2C58.6839 13.6 58.9639 13.92 59.3239 14.16C59.6972 14.3867 60.1172 14.5 60.5839 14.5ZM67.8556 17V3H70.4956V17H67.8556ZM77.2975 17.24C76.3108 17.24 75.4375 17.02 74.6775 16.58C73.9175 16.1267 73.3175 15.5067 72.8775 14.72C72.4508 13.9333 72.2375 13.0267 72.2375 12C72.2375 10.9733 72.4575 10.0667 72.8975 9.28C73.3508 8.49333 73.9641 7.88 74.7375 7.44C75.5241 6.98667 76.4241 6.76 77.4375 6.76C78.3175 6.76 79.1241 6.99333 79.8575 7.46C80.6041 7.91333 81.1975 8.58667 81.6375 9.48C82.0908 10.36 82.3175 11.4333 82.3175 12.7H74.7375L74.9775 12.46C74.9775 12.9533 75.0975 13.3867 75.3375 13.76C75.5908 14.12 75.9108 14.4 76.2975 14.6C76.6975 14.7867 77.1241 14.88 77.5775 14.88C78.1241 14.88 78.5708 14.7667 78.9175 14.54C79.2641 14.3 79.5308 13.9933 79.7175 13.62L82.0775 14.54C81.7975 15.1 81.4308 15.5867 80.9775 16C80.5375 16.4 80.0108 16.7067 79.3975 16.92C78.7841 17.1333 78.0841 17.24 77.2975 17.24ZM75.1175 10.98L74.8775 10.74H79.6975L79.4775 10.98C79.4775 10.5 79.3641 10.12 79.1375 9.84C78.9108 9.54667 78.6308 9.33333 78.2975 9.2C77.9775 9.06667 77.6641 9 77.3575 9C77.0508 9 76.7241 9.06667 76.3775 9.2C76.0308 9.33333 75.7308 9.54667 75.4775 9.84C75.2375 10.12 75.1175 10.5 75.1175 10.98Z" fill="#F0F9FF"/>
<defs>
<linearGradient id="paint0_linear_132_383" x1="8.00005" y1="0" x2="8.00005" y2="20" gradientUnits="userSpaceOnUse">
<stop stop-color="#70BEFA"/>
<stop offset="1" stop-color="white"/>
</linearGradient>
<linearGradient id="paint1_linear_132_383" x1="8.00005" y1="0" x2="8.00005" y2="20" gradientUnits="userSpaceOnUse">
<stop stop-color="#70BEFA"/>
<stop offset="1" stop-color="white"/>
</linearGradient>
</defs>
</svg>
